Coordinates
version=1
nRows=4
nColumns=107
inDegrees=yes

Units are S.I. units (second, meters, Newtons, ...)
If the header above contains a line with 'inDegrees', this indicates whether rotational values are in degrees (yes) or radians (no).

endheader
time	sternoclavicular_r2	sternoclavicular_r3	unrotscap_r3	unrotscap_r2	acromioclavicular_r2	acromioclavicular_r3	acromioclavicular_r1	unrothum_r1	unrothum_r3	unrothum_r2	elv_angle	shoulder_elv	shoulder1_r2	shoulder_rot	elbow_flexion	pro_sup	deviation	flexion	proximal_distal_r1	proximal_distal_r3	cmc_flexion	cmc_abduction	mp_flexion	ip_flexion	mcp2_flexion	mcp2_abduction	pm2_flexion	md2_flexion	mcp3_flexion	mcp3_abduction	pm3_flexion	md3_flexion	mcp4_flexion	mcp4_abduction	pm4_flexion	md4_flexion	mcp5_flexion	mcp5_abduction	pm5_flexion	md5_flexion	bicpt_tx	bicpt_ty	bicpt_tz	bicpt2_tx	bicpt2_ty	bicpt2_tz	ptpt_tx	ptpt_ty	ptpt_tz	FCUpt_tx	FCUpt_ty	FCUpt_tz	EDCpt_tx	EDCpt_ty	EDCpt_tz	APLpt_tx	APLpt_ty	APLpt_tz	FPLpt_tx	FPLpt_ty	FPLpt_tz	FPLpt2_tx	FPLpt2_ty	FPLpt2_tz	PEC1pt2_tx	PEC1pt2_ty	PEC1pt2_tz	PEC1pt3_tx	PEC1pt3_ty	PEC1pt3_tz	PEC2pt2_tx	PEC2pt2_ty	PEC2pt2_tz	PEC2pt3_tx	PEC2pt3_ty	PEC2pt3_tz	PEC3pt2_tx	PEC3pt2_ty	PEC3pt2_tz	PEC3pt3_tx	PEC3pt3_ty	PEC3pt3_tz	DELT2pt2a_tx	DELT2pt2a_ty	DELT2pt2a_tz	DELT2pt2_tx	DELT2pt2_ty	DELT2pt2_tz	LAT1pt2_tx	LAT1pt2_ty	LAT1pt2_tz	LAT1pt3_tx	LAT1pt3_ty	LAT1pt3_tz	LAT2pt2_tx	LAT2pt2_ty	LAT2pt2_tz	LAT2pt3_tx	LAT2pt3_ty	LAT2pt3_tz	LAT3pt2_tx	LAT3pt2_ty	LAT3pt2_tz	LAT3pt3_tx	LAT3pt3_ty	LAT3pt3_tz
      1.16666667	     -0.31251551	      0.13236682	     -0.13236682	      0.31251551	     -0.06327803	      0.51139081	      0.22986665	     -0.22986665	     -0.51139081	      0.06327803	    101.43147217	     73.99082441	     -1.77031315	    -36.54968471	     32.18901155	     83.03823908	      0.29768218	     -0.07715335	      0.33146490	     -0.03857668	     29.55212836	    -11.91126296	    -16.30605077	      4.59948417	     16.57452733	     11.49470934	     29.88090967	     26.74925636	     25.76178013	      5.49476110	     36.61992426	     31.40655139	     19.74841207	     -5.85145135	     42.59154401	     31.48806740	     12.47092975	    -13.85255901	     54.29292990	      5.40547540	      0.00096471	     -0.03128935	     -0.00489426	      0.01453609	     -0.01894430	     -0.00157713	      0.00141441	     -0.06886737	     -0.00673918	      0.01239911	     -0.18233680	      0.00000550	     -0.00996457	      0.00341683	     -0.00066448	      0.00007404	      0.00002962	      0.00014808	      0.00009477	      0.00028431	      0.00015992	     -0.00000792	     -0.00025365	     -0.00030438	      0.00242526	      0.00850895	      0.00591927	     -0.00793347	      0.01915542	     -0.01816887	      0.00242526	      0.00850895	      0.00591927	      0.00053438	      0.01775781	     -0.00933107	      0.00386469	      0.00473172	      0.01576056	      0.00000000	      0.00731875	      0.00000000	     -0.00694692	     -0.03210382	     -0.00603193	      0.02149504	     -0.00098625	     -0.01093141	     -0.00086323	      0.01446933	     -0.00591927	      0.00238415	      0.02088187	     -0.01726454	     -0.00579595	      0.01253734	     -0.00530268	     -0.01208518	      0.02647230	     -0.02963746	     -0.02269054	      0.01401716	     -0.00711135	     -0.01504481	      0.03058290	     -0.03703655
      1.20000000	     -0.31197147	      0.13213639	     -0.13213639	      0.31197147	     -0.06316788	      0.51050055	      0.22946649	     -0.22946649	     -0.51050055	      0.06316788	    101.75468919	     73.86201789	     -1.77595436	    -37.52048845	     32.02925617	     83.49791527	      0.29809406	     -0.02790015	      0.33182334	     -0.01395008	     28.87718068	    -10.80146587	    -17.71085529	      4.12102872	     11.47773198	     10.74408042	     26.25777120	     23.49233776	     20.47724105	      4.32385594	     31.01634678	     28.41561862	     13.77432902	     -5.54979782	     37.52663716	     29.50190755	      6.32061430	    -13.83210637	     49.51532251	      5.36941222	      0.00095943	     -0.03127104	     -0.00489131	      0.01449139	     -0.01890090	     -0.00150013	      0.00138045	     -0.06888934	     -0.00677621	      0.01245154	     -0.18232158	      0.00001724	     -0.01001973	      0.00344167	     -0.00067857	      0.00002792	      0.00001117	      0.00005584	      0.00003574	      0.00010722	      0.00006031	     -0.00000691	     -0.00025867	     -0.00031040	      0.00242103	      0.00849414	      0.00590897	     -0.00791966	      0.01912207	     -0.01813724	      0.00242103	      0.00849414	      0.00590897	      0.00053345	      0.01772690	     -0.00931483	      0.00385971	      0.00472348	      0.01574794	      0.00000000	      0.00729313	      0.00000000	     -0.00693483	     -0.03204794	     -0.00601065	      0.02183368	     -0.00102108	     -0.01147868	     -0.00086172	      0.01444414	     -0.00590897	      0.00238000	      0.02084552	     -0.01723449	     -0.00578586	      0.01251552	     -0.00529345	     -0.01206414	      0.02642621	     -0.02958587	     -0.02265104	      0.01399276	     -0.00709897	     -0.01501862	      0.03052966	     -0.03697207
      1.23333333	     -0.31150776	      0.13193999	     -0.13193999	      0.31150776	     -0.06307399	      0.50974176	      0.22912541	     -0.22912541	     -0.50974176	      0.06307399	    102.07356202	     73.75223146	     -1.78151974	    -38.50067567	     31.88793176	     84.04582277	      0.30028611	      0.02083259	      0.33372486	      0.01041630	     27.89640223	     -9.57549697	    -18.40128069	      4.02968175	      7.52518419	     10.11684079	     23.38538086	     20.00515211	     15.97106719	      3.28442386	     26.70950386	     25.76826636	      8.69944556	     -5.33984271	     33.41271834	     27.90720076	      1.15297922	    -13.80438222	     45.62316927	      5.35288086	      0.00095475	     -0.03125484	     -0.00488870	      0.01443755	     -0.01886251	     -0.00140802	      0.00133996	     -0.06891551	     -0.00682034	      0.01251410	     -0.18230337	      0.00003141	     -0.01008548	      0.00347136	     -0.00069550	     -0.00002167	     -0.00000867	     -0.00004334	     -0.00002773	     -0.00008320	     -0.00004680	     -0.00000530	     -0.00026508	     -0.00031809	      0.00241744	      0.00848151	      0.00590018	     -0.00790788	      0.01909365	     -0.01811029	      0.00241744	      0.00848151	      0.00590018	      0.00053266	      0.01770055	     -0.00930098	      0.00385546	      0.00471646	      0.01573715	      0.00000000	      0.00727133	      0.00000000	     -0.00692452	     -0.03200030	     -0.00599254	      0.02216309	     -0.00105643	     -0.01204001	     -0.00086044	      0.01442267	     -0.00590018	      0.00237646	      0.02081454	     -0.01720887	     -0.00577726	      0.01249692	     -0.00528558	     -0.01204621	      0.02638693	     -0.02954189	     -0.02261737	      0.01397196	     -0.00708841	     -0.01499630	      0.03048428	     -0.03691712
      1.26666667	     -0.31120173	      0.13181037	     -0.13181037	      0.31120173	     -0.06301202	      0.50924098	      0.22890032	     -0.22890032	     -0.50924098	      0.06301202	    102.27184502	     73.67977618	     -1.78498043	    -39.16784084	     31.82431102	     84.20698848	      0.30270904	      0.06703145	      0.33581680	      0.03351573	     27.00108193	     -8.55134308	    -18.85195056	      4.05046955	      4.60565270	      9.46117456	     21.32578714	     16.56355029	     12.28717521	      2.19776518	     23.23028692	     23.37812714	      4.71078527	     -5.40484135	     29.86289771	     26.51968252	     -3.16659213	    -13.78186599	     42.24301743	      5.33166119	      0.00095265	     -0.03124755	     -0.00488753	      0.01442157	     -0.01884523	     -0.00138084	      0.00132805	     -0.06892321	     -0.00683332	      0.01253252	     -0.18229800	      0.00003562	     -0.01010481	      0.00348012	     -0.00070052	     -0.00007233	     -0.00002893	     -0.00014467	     -0.00009259	     -0.00027776	     -0.00015624	     -0.00000371	     -0.00027000	     -0.00032400	      0.00241506	      0.00847318	      0.00589439	     -0.00790012	      0.01907489	     -0.01809249	      0.00241506	      0.00847318	      0.00589439	      0.00053213	      0.01768316	     -0.00929185	      0.00385265	      0.00471183	      0.01573001	      0.00000000	      0.00725697	      0.00000000	     -0.00691772	     -0.03196886	     -0.00598061	      0.02238002	     -0.00108060	     -0.01242705	     -0.00085960	      0.01440850	     -0.00589439	      0.00237413	      0.02079409	     -0.01719196	     -0.00577159	      0.01248464	     -0.00528039	     -0.01203437	      0.02636101	     -0.02951287	     -0.02259515	      0.01395824	     -0.00708145	     -0.01498157	      0.03045433	     -0.03688085
